<svg width="857" height="154" viewBox="0 0 857 154" fill="none" xmlns="http://www.w3.org/2000/svg">
<rect x="277" y="94" width="1124" height="37" fill="#CB0809"/>
<path d="M1.4 151L63 3H84.4L146.4 151H116.2L100.4 112.8H47.4L31.6 151H1.4ZM73.4 41.6L56.6 87H90.6L73.8 41.6H73.4ZM120.047 151V3H149.247C160.18 3 168.247 3.46666 173.447 4.39999C181.98 6 189.114 9.33333 194.847 14.4C203.247 21.8667 207.447 31.0667 207.447 42C207.447 54.5333 201.914 63.9333 190.847 70.2C207.78 76.4667 216.247 88.7333 216.247 107C216.247 121.8 210.114 133.533 197.847 142.2C189.447 148.067 176.714 151 159.647 151H120.047ZM147.447 86.2V125.4H161.247C179.647 125.4 188.847 118.933 188.847 106C188.847 101.2 187.38 97.1333 184.447 93.8C179.78 88.7333 172.247 86.2 161.847 86.2H147.447ZM147.447 28.6V60.6H156.447C172.18 60.6 180.047 55.2667 180.047 44.6C180.047 33.9333 172.98 28.6 158.847 28.6H147.447ZM216.662 77.4C216.662 55.6667 224.262 37.3333 239.462 22.4C254.663 7.46666 272.863 -1.09673e-05 294.063 -1.09673e-05C315.263 -1.09673e-05 333.463 7.46666 348.663 22.4C363.863 37.3333 371.463 55.6667 371.463 77.4C371.463 98.6 363.863 116.667 348.663 131.6C333.596 146.533 315.396 154 294.063 154C272.729 154 254.463 146.533 239.263 131.6C224.196 116.667 216.662 98.6 216.662 77.4ZM244.063 77.2C244.063 91.0667 248.863 103.067 258.463 113.2C268.196 123.333 280.063 128.4 294.063 128.4C308.063 128.4 319.863 123.333 329.463 113.2C339.196 103.067 344.063 91.0667 344.063 77.2C344.063 62.9333 339.196 50.8 329.463 40.8C319.729 30.6667 307.929 25.6 294.063 25.6C280.196 25.6 268.396 30.6667 258.663 40.8C248.929 50.8 244.063 62.9333 244.063 77.2ZM353.031 3H380.631L380.431 97C380.431 117.933 388.965 128.4 406.031 128.4C423.098 128.4 431.631 117.933 431.631 97V3H459.031V97C459.031 112.333 456.165 124 450.431 132C439.898 146.667 425.165 154 406.231 154C396.098 154 386.765 151.533 378.231 146.6C371.698 142.867 366.365 138.267 362.231 132.8C356.098 124.533 353.031 112.6 353.031 97V3ZM496.561 151V28.6H469.161V3H551.561V28.6H523.961V151H496.561ZM608.6 151V3H646.6L686 115H686.4L725.4 3H763.4V151H736V40H735.4L697.6 151H674.4L636.4 40H636V151H608.6ZM738.278 151V3H817.878V28.6H765.678V64.8H815.678V90.4H765.678V125.4H817.878V151H738.278Z" fill="white"/>
</svg>
