<?xml version="1.0" encoding="UTF-8"?>
<svg id="Layer_1" data-name="Layer 1" xmlns="http://www.w3.org/2000/svg" version="1.1" viewBox="0 0 399.8 68.6">
  <defs>
    <style>
      .cls-1 {
        fill: #020202;
        stroke-width: 0px;
      }
    </style>
  </defs>
  <path class="cls-1" d="M40.9,34.2c6.9.2,15.9-1.6,20.5,4.6v-4.5c5,0,10.4-.6,15.2.3,2.2.4,4.2,1.2,5.9,2.6,1.4,1.1,2.5,3.4,4,4,0-1.4-.7-5,0-6.1.9-1.3,2.5-.8,4.2-.8,4.1,0,9.5-.9,13.4.2v4.3h-12.4v9.4h12.3v4.4h-12.4v9.8h12.3v4.4h-17.3v-7c-2.3,2.7-4.5,5-7.9,6.2-4.2,1.5-9,.9-13.4.9-4.2,0-8.5,1.2-11.2-2.3-2.9-3.8-5.5-7.8-8.6-11.5v13.7h-5s0-32.6,0-32.6ZM67,62.2c4.2,0,8.9.7,12.5-1.9,2.9-2.1,4.4-5.6,4.4-9.2,0-3.4-1.4-7.3-4-9.6-3.5-3-8.6-2.3-12.9-2.5v23.2ZM46.2,50.7c4.3.7,11,.2,11.3-5.4.4-6.4-6.9-6.1-11.3-6.6,0,0,0,12,0,12ZM54,55.2c2.5,3.5,5,6.8,7.5,10.3v-14.6c-1.9,2.5-4.3,3.9-7.5,4.3Z"/>
  <path class="cls-1" d="M14.5,62.5c1.5-2.2,2.9-4.3,4.4-6.6h-6.4c0-1.7.2-3.3.2-5.1,2.5,0,7.1.9,9.5,0,2.3-.9,3.9-5,5.1-7,1.6-2.4,3.5-6.7,5.7-8.6,1.9-1.6,4.4-1,6.8-1v32.6h-4.9v-11.2c-.1,0-.2,0-.3,0-3.2,6.9-7.3,11.3-15.2,12-8.2.7-15.8-3.3-18.5-11.4-5.8-17.5,15.6-29.1,28.5-17.5-1,1.4-1.9,2.7-2.9,4.1-6.3-5.1-16.8-5.7-20.4,3.1-3,7.2,1.4,14.3,8.3,16.8h0ZM34.5,42.2c-1.9,3-3.6,5.7-5.4,8.6h5.4v-8.6ZM28.8,55.6c-1.4.2-2.9-.1-3.4.4-1.5,1.8-2.7,3.9-4.2,6.1,3.9-.9,6-3.1,7.6-6.6h0Z"/>
  <path class="cls-1" d="M202.2,62.6c-7,.5-12-1.9-16.5-7.3-2.6-3.1-5-6.4-7.4-9.7-1.7-2.3-3.2-5.3-5.9-6.6-2.6-1.2-5.9-.9-8.7-.8-1.9,0-2-.3-2.7,1.2-.6,1.3,0,4.5,0,5.9,0,5.1-1.5,13.5,4.9,15.3h-13.3c3.7-2,3.4-6.1,3.5-9.7,0-5.7,0-11.3,0-17s0-10.8,0-16.2c0-4.1.7-9.1-3.2-11.6,8-.3,17.6-2,25.2,1.2,7.4,3.2,10.4,11.6,7.6,19-.7,1.8-1.6,3.4-2.7,4.9-1,1.3-3.1,2.3-3.8,3.5-1.1,1.8-.4,2.1,1,4,1.5,2,3,4.1,4.5,6.2,4.1,5.6,9.7,15.8,17.4,16.9,0,.2,0,.4,0,.6h0ZM167,35.8h0c7.4,0,11.3-2.6,13.7-9.8,2.3-6.8-1.6-13.8-8.1-16.5-2.1-.9-8.7-2.7-10.8-1.1-1.8,1.3-.6,8.5-.6,10.7,0,4.3,0,8.5-.1,12.8,0,1.2-.5,3.1.7,3.9,1,.6,4,0,5.2,0h0Z"/>
  <path class="cls-1" d="M245,33.8c0,15.4-11.9,28.1-27.4,28.3-17,.2-28.6-13-28.8-28.2-.2-15.6,12.3-28.2,27.9-28.4,15.6-.2,28.7,13,28.3,28.3ZM217.4,59.9c29.2-1.6,29-52.5-.5-52.4-29.8,0-29.1,51.5.5,52.4Z"/>
  <path class="cls-1" d="M339.8,59.4c-4.6,6.5-12.2,5-13.8-2.6-5.1,3.7-10.4,8.6-17.1,5.8-4.4-1.8-6.6-6.6-4.9-11,2.3-6,10-7.7,15.3-10.1,2.6-1.2,5.9-2,6.6-5.1.6-2.8.5-7.9-.3-10.7-1.5-5.4-10.5-4.5-13.2-.5-1.6,2.3-.1,5.1-1.3,7.5-1.4,2.8-6.2,3.5-6.6-.3-.6-5,8.9-9.8,12.7-11.1,4.9-1.7,12.8-3,15,3.1,1.3,3.6.8,8.2.8,11.9,0,4.3-.1,8.6,0,12.9,0,5.5-.8,14.4,7,10.3h0ZM325.9,39.5c-4.4,1.8-10.9,3.8-14.2,7.5-2.9,3.3-2.1,8.6,1.6,11.1,3.6,2.4,9.8,1.4,11.9-2.6,1.2-2.2.6-5.4.6-7.8,0-2.7,0-5.4,0-8.2h0Z"/>
  <path class="cls-1" d="M86.5,5.2h-6.4V.3h11.7v32.5c-3,0-4.7.5-6.5-2-1.8-2.4-3.3-5-4.9-7.5-1.5-2.3-3-4.5-4.5-6.8-1.4-2.1-2.8-5.4-4.8-6.9,0,5.4,0,10.7,0,16.1,0,1.4.8,5.3-.2,6.4-.9,1-3.5.5-4.8.5V.2c2.4,0,4.6-.6,6.3,1.2,2,2,3.4,5.4,5,7.8,3.1,4.9,6.1,9.9,9.3,14.6,0,0,0-18.6,0-18.6Z"/>
  <path class="cls-1" d="M374,49.1c-2.6,6.8-5.8,13.1-13.6,14.6-6.4,1.2-13.6-.7-17.9-5.7-9.9-11.4-6.2-32.7,8.8-37.6,5.3-1.7,11.4-1.1,16.1,2,2.7,1.7,6.1,5,5.3,8.5-.9,3.8-5.8,4.2-7.6.9-1.5-2.7.2-5.7-1.8-8.4-2-2.8-5.8-3.5-9-2.7-7.4,1.9-9.8,11.4-10,18-.3,8,2.9,17.5,11.6,19.3,7.8,1.6,13.8-2.8,17.5-9.2.1,0,.3.1.5.2h0Z"/>
  <path class="cls-1" d="M124.6,5.4c8.5.3,16.8.7,25.3,1,0,1.8-.2,3.8-.3,6.3-2.7-5.6-11.6-3.9-16.5-3.9-.4,4.3-.5,8.6-.4,13,0,1.5-.8,7.2.2,8.6,1.2,1.5,5.1.7,6.6.7,3.8-.1,7.6.4,9.6-3.4v9.3c-1.9-4.2-8.4-3.5-12.2-3.5-3.7,0-4.4-.2-4.3,3.8,0,3.2.1,6.5.2,9.7.1,4-.8,8.5,3.6,10,5.6,1.8,10.5.8,15.4-2.2-.9,1.6-1.8,4.6-3.3,5.8-1.9,1.5-5.4.7-7.6.6-5.6-.2-11.3-.5-16.9-.8,0-.4,2.5-2.3,2.8-3.2.8-1.9.5-4.3.5-6.4,0-5.8.1-11.5.2-17.2,0-5.4.2-10.8,0-16.2-.1-3.4.9-10.3-3.1-11.9h0Z"/>
  <path class="cls-1" d="M399.1,57.2c-5.7,8.1-21,9.7-21.5-2.8-.2-7.1,0-14.2,0-21.4,0-1.6,1-6.4-.2-7.7-.8-1-3.7-.4-4.8-.4,3.9-4,7.6-7.8,11.5-11.8,0,2.7-1.2,7.1,1.7,7.8,4,1,9.5-.1,13.7-.1-1.6,3.6-2.1,4-6,4.1-1.5,0-7.7-.9-8.8.3-1.5,1.6-.4,7.5-.4,9.5,0,3.5,0,7,0,10.4,0,4.5-.9,10.7,3.5,13.5,3.6,2.3,7.7.6,11-1.4h0Z"/>
  <path class="cls-1" d="M286.1,25.7c4.3-6.3,8.4-12.4,12.5-18.4.1,0,.3.1.4.2-1.8,3.2-2.4,8.7-1.7,12.4.4,2,.5,1.8,2.8,1.8,2.6,0,5.3,0,7.9,0-1,1.6-1.7,3.2-3.5,3.8-1.8.5-5.5-.9-6.9.4-1.1,1.1-.3,5.2-.3,6.7,0,3,0,6,.1,9,0,5.3-.3,11,.3,16.3.5,4.2,2.8,4.4,6.6,4.6,0,.2,0,.4,0,.6-6.5-.2-13-.4-19.5-.6,0-.2,0-.4,0-.5,2.8-.2,5.2-.2,5.9-3.2.9-3.7,0-8.6,0-12.5,0-4.6-.2-9.2-.2-13.9,0-1.3.6-4.8-.1-5.9-.9-1.3-2.8-.8-4.2-.8h0Z"/>
  <path class="cls-1" d="M60.1,23.5c-2.8,0-5.5,0-8.3,0-3.1,0-3.3.9-5,3.4-1,1.5-2.2,4.5-3.6,5.5-1.5,1-4.7.4-6.4.4,4.3-6.4,8.7-12.7,13-19.1,2.2-3.3,4.4-6.5,6.7-9.8.8-1.2,1.6-3.2,3.1-3.7,1.5-.5,4,0,5.5,0v32.3h-5v-9h0ZM59.7,19V7.9c-2.4,3.9-4.6,7.4-6.9,11.1h6.9Z"/>
  <path class="cls-1" d="M28.8.2v32.3h-5.1v-9c-2.5,0-5,0-7.5,0-3.1,0-3.6.2-5.3,2.8-1.1,1.7-2.3,4.7-4,5.8-1.7,1.2-4.4.7-6.3.7,3.9-6.5,8.5-12.7,12.8-19,2.2-3.3,4.4-6.5,6.6-9.8.9-1.3,1.7-3.2,3.2-3.8,1.5-.5,4,0,5.5,0h0ZM16.5,18.9h6.9V7.9c-2.4,3.8-4.6,7.3-6.9,11Z"/>
  <path class="cls-1" d="M244.8,48.9c2.3,7.7,10.8,14.1,18.2,8.1,3.1-2.5,4.5-7,3.1-10.9-1.7-4.7-7.3-8-11-11.1-3.6-3-7.8-6-9.6-10.5-1.9-4.7-.9-10.2,2.4-14,2.8-3.2,7.1-4.5,11.3-4.2,1.8.1,6.7.7,7.9,2.1.9,1,.2,5.3.2,6.6-1.2-1.4-1.7-3.1-3.1-4.4-1.6-1.4-3.9-2.2-6.1-2.2-4.6-.2-8.3,3.4-8.9,7.8-.9,5.7,3.1,9.4,7,12.6,4.1,3.4,8.8,6.8,12.1,11,6.2,7.7.4,19.3-8.7,21.2-4.2.8-10.4,0-14-2.7-2.5-1.9-1.5-6.5-.9-9.4h0Z"/>
  <path class="cls-1" d="M58.1.2c-4.5,6.5-9,13.1-13.5,19.6-2.2,3.1-4.3,6.2-6.5,9.3-.8,1.2-1.6,3.1-3.1,3.7-1.4.5-3.9,0-5.4,0V.3h5v23.9c.2,0,.3.1.5.2,3.7-5.1,7.2-10.4,10.7-15.6,1.5-2.2,3.3-6.1,5.3-7.8,1.7-1.4,4.9-.8,7-.8h0Z"/>
  <path class="cls-1" d="M97.9,5.2v27.6h-5.1V.3h11.4v4.9h-6.4Z"/>
  <path class="cls-1" d="M398.5,48.9c0,6.4-9.4,6.4-9.4.1,0-6.2,9.4-6.6,9.4-.1Z"/>
  <path class="cls-1" d="M398.2,34.5c0,5.8-8.2,6.6-8.9.8-.8-6.3,8.9-7.2,8.9-.8Z"/>
  <path class="cls-1" d="M299.5,6.8c1.8-1.9,3.9-3.5,6.5-3.8,2.5-.2,5.7.9,5,3.9-1.5,7.3-8.8-2-11.5-.2Z"/>
</svg>