<svg width="1066" height="460" viewBox="0 0 1066 460" fill="none" xmlns="http://www.w3.org/2000/svg">
<path d="M27.6 151V28.6H0.2V3H82.6V28.6H55V151H27.6ZM119.184 151V96.4L70.5844 3H100.584L132.784 71L165.184 3H195.384L146.584 96.4V151H119.184ZM197.408 151V3H234.608C245.008 3 252.474 3.46666 257.008 4.39999C264.874 6 271.874 9.46666 278.008 14.8C287.341 22.9333 292.008 34.2667 292.008 48.8C292.008 63.3333 287.341 74.6667 278.008 82.8C271.874 88.1333 264.874 91.6 257.008 93.2C252.474 94.1333 245.008 94.6 234.608 94.6H224.808V151H197.408ZM224.808 28.6V69H233.608C242.408 69 249.074 68.0667 253.608 66.2C260.941 63.1333 264.608 57.3333 264.608 48.8C264.608 35.3333 254.608 28.6 234.608 28.6H224.808ZM289.522 77.4C289.522 55.6667 297.122 37.3333 312.322 22.4C327.522 7.46666 345.722 -1.09673e-05 366.922 -1.09673e-05C388.122 -1.09673e-05 406.322 7.46666 421.522 22.4C436.722 37.3333 444.322 55.6667 444.322 77.4C444.322 98.6 436.722 116.667 421.522 131.6C406.455 146.533 388.255 154 366.922 154C345.589 154 327.322 146.533 312.122 131.6C297.055 116.667 289.522 98.6 289.522 77.4ZM316.922 77.2C316.922 91.0667 321.722 103.067 331.322 113.2C341.055 123.333 352.922 128.4 366.922 128.4C380.922 128.4 392.722 123.333 402.322 113.2C412.055 103.067 416.922 91.0667 416.922 77.2C416.922 62.9333 412.055 50.8 402.322 40.8C392.589 30.6667 380.789 25.6 366.922 25.6C353.055 25.6 341.255 30.6667 331.522 40.8C321.789 50.8 316.922 62.9333 316.922 77.2ZM413.691 101.2V75.6H510.291V78.8C510.291 99.6 502.491 117.333 486.891 132C471.291 146.667 452.957 154 431.891 154C410.291 154 391.757 146.733 376.291 132.2C360.291 117.267 352.291 98.8667 352.291 77C352.291 55.5333 360.224 37.2667 376.091 22.2C391.557 7.39999 409.891 -1.09673e-05 431.091 -1.09673e-05C448.424 -1.09673e-05 464.091 5.06666 478.091 15.2C490.357 24.1333 498.624 34.5333 502.891 46.4H470.091C466.357 40.6667 461.424 36 455.291 32.4C447.691 27.8667 439.424 25.6 430.491 25.6C414.891 25.6 402.224 31.2667 392.491 42.6C383.957 52.7333 379.691 64.2667 379.691 77.2C379.691 90 384.024 101.333 392.691 111.2C402.557 122.667 415.624 128.4 431.891 128.4C441.091 128.4 449.624 126 457.491 121.2C465.357 116.4 471.424 109.733 475.691 101.2H413.691ZM515.659 151V3H561.059C576.793 3 588.793 6.33333 597.059 13C608.659 22.3333 614.459 34.2667 614.459 48.8C614.459 63.3333 609.726 75.1333 600.259 84.2C594.526 89.8 586.326 93.8667 575.659 96.4L615.859 151H582.659L543.459 94.4H543.059V151H515.659ZM543.059 28.6V73.8H560.659C570.659 73.8 577.859 71 582.259 65.4C585.459 61.4 587.059 56.6 587.059 51C587.059 45.5333 585.326 40.8 581.859 36.8C577.193 31.3333 570.126 28.6 560.659 28.6H543.059ZM608.275 151L669.875 3H691.275L753.275 151H723.075L707.275 112.8H654.275L638.475 151H608.275ZM680.275 41.6L663.475 87H697.475L680.675 41.6H680.275ZM731.322 151V3H768.522C778.922 3 786.389 3.46666 790.922 4.39999C798.789 6 805.789 9.46666 811.922 14.8C821.255 22.9333 825.922 34.2667 825.922 48.8C825.922 63.3333 821.255 74.6667 811.922 82.8C805.789 88.1333 798.789 91.6 790.922 93.2C786.389 94.1333 778.922 94.6 768.522 94.6H758.722V151H731.322ZM758.722 28.6V69H767.522C776.322 69 782.989 68.0667 787.522 66.2C794.855 63.1333 798.522 57.3333 798.522 48.8C798.522 35.3333 788.522 28.6 768.522 28.6H758.722ZM831.036 151V3H858.436V63.2H911.436V3H938.836V151H911.436V88.8H858.436V151H831.036ZM988.973 151V96.4L940.373 3H970.373L1002.57 71L1034.97 3H1065.17L1016.37 96.4V151H988.973ZM11.2 304V156H90.8V181.6H38.6V217.8H88.6V243.4H38.6V278.4H90.8V304H11.2ZM101.706 304L152.706 230.2L101.706 156H134.306L168.906 207.6L204.506 156H236.106L184.906 230.2L236.106 304H204.506L168.906 252.8L134.306 304H101.706ZM225.244 304V156H262.444C272.844 156 280.31 156.467 284.844 157.4C292.71 159 299.71 162.467 305.844 167.8C315.177 175.933 319.844 187.267 319.844 201.8C319.844 216.333 315.177 227.667 305.844 235.8C299.71 241.133 292.71 244.6 284.844 246.2C280.31 247.133 272.844 247.6 262.444 247.6H252.644V304H225.244ZM252.644 181.6V222H261.444C270.244 222 276.91 221.067 281.444 219.2C288.777 216.133 292.444 210.333 292.444 201.8C292.444 188.333 282.444 181.6 262.444 181.6H252.644ZM333.558 304V156H378.958C394.691 156 406.691 159.333 414.958 166C426.558 175.333 432.358 187.267 432.358 201.8C432.358 216.333 427.624 228.133 418.158 237.2C412.424 242.8 404.224 246.867 393.558 249.4L433.758 304H400.558L361.358 247.4H360.958V304H333.558ZM360.958 181.6V226.8H378.558C388.558 226.8 395.758 224 400.158 218.4C403.358 214.4 404.958 209.6 404.958 204C404.958 198.533 403.224 193.8 399.758 189.8C395.091 184.333 388.024 181.6 378.558 181.6H360.958ZM446.973 304V156H526.573V181.6H474.373V217.8H524.373V243.4H474.373V278.4H526.573V304H446.973ZM539.08 261.6H567.88C568.546 268.4 570.946 273.533 575.08 277C578.546 279.933 582.68 281.4 587.48 281.4C593.08 281.4 597.88 279.667 601.88 276.2C605.88 272.733 607.88 268.267 607.88 262.8C607.88 256 605.48 250.8 600.68 247.2C598.013 245.2 591.013 242.067 579.68 237.8C569.28 233.8 562.013 230.067 557.88 226.6C548.946 219.133 544.48 208.667 544.48 195.2C544.48 183.333 548.613 173.333 556.88 165.2C565.146 157.067 575.48 153 587.88 153C598.146 153 607.413 156.267 615.68 162.8C625.68 170.667 631.013 181.467 631.68 195.2H603.68C602.613 184.133 597.08 178.6 587.08 178.6C582.68 178.6 579.013 180 576.08 182.8C573.28 185.6 571.88 189.2 571.88 193.6C571.88 199.333 574.08 203.733 578.48 206.8C581.28 208.667 587.28 211.133 596.48 214.2C622.346 222.733 635.28 237.933 635.28 259.8C635.28 274.733 630.213 286.6 620.08 295.4C611.013 303.133 600.08 307 587.28 307C575.946 307 565.746 303.533 556.68 296.6C545.613 288.067 539.746 276.4 539.08 261.6ZM640.986 261.6H669.786C670.453 268.4 672.853 273.533 676.986 277C680.453 279.933 684.586 281.4 689.386 281.4C694.986 281.4 699.786 279.667 703.786 276.2C707.786 272.733 709.786 268.267 709.786 262.8C709.786 256 707.386 250.8 702.586 247.2C699.919 245.2 692.919 242.067 681.586 237.8C671.186 233.8 663.919 230.067 659.786 226.6C650.853 219.133 646.386 208.667 646.386 195.2C646.386 183.333 650.519 173.333 658.786 165.2C667.053 157.067 677.386 153 689.786 153C700.053 153 709.319 156.267 717.586 162.8C727.586 170.667 732.919 181.467 733.586 195.2H705.586C704.519 184.133 698.986 178.6 688.986 178.6C684.586 178.6 680.919 180 677.986 182.8C675.186 185.6 673.786 189.2 673.786 193.6C673.786 199.333 675.986 203.733 680.386 206.8C683.186 208.667 689.186 211.133 698.386 214.2C724.253 222.733 737.186 237.933 737.186 259.8C737.186 274.733 732.119 286.6 721.986 295.4C712.919 303.133 701.986 307 689.186 307C677.853 307 667.653 303.533 658.586 296.6C647.519 288.067 641.653 276.4 640.986 261.6ZM754.892 304V156H782.292V304H754.892ZM853.747 304L796.147 156H824.947L864.547 268.6H864.947L904.747 156H933.547L876.147 304H853.747ZM944.786 304V156H1024.39V181.6H972.186V217.8H1022.19V243.4H972.186V278.4H1024.39V304H944.786ZM27.6 457V334.6H0.2V309H82.6V334.6H55V457H27.6ZM119.184 457V402.4L70.5844 309H100.584L132.784 377L165.184 309H195.384L146.584 402.4V457H119.184ZM197.408 457V309H234.608C245.008 309 252.474 309.467 257.008 310.4C264.874 312 271.874 315.467 278.008 320.8C287.341 328.933 292.008 340.267 292.008 354.8C292.008 369.333 287.341 380.667 278.008 388.8C271.874 394.133 264.874 397.6 257.008 399.2C252.474 400.133 245.008 400.6 234.608 400.6H224.808V457H197.408ZM224.808 334.6V375H233.608C242.408 375 249.074 374.067 253.608 372.2C260.941 369.133 264.608 363.333 264.608 354.8C264.608 341.333 254.608 334.6 234.608 334.6H224.808ZM289.522 383.4C289.522 361.667 297.122 343.333 312.322 328.4C327.522 313.467 345.722 306 366.922 306C388.122 306 406.322 313.467 421.522 328.4C436.722 343.333 444.322 361.667 444.322 383.4C444.322 404.6 436.722 422.667 421.522 437.6C406.455 452.533 388.255 460 366.922 460C345.589 460 327.322 452.533 312.122 437.6C297.055 422.667 289.522 404.6 289.522 383.4ZM316.922 383.2C316.922 397.067 321.722 409.067 331.322 419.2C341.055 429.333 352.922 434.4 366.922 434.4C380.922 434.4 392.722 429.333 402.322 419.2C412.055 409.067 416.922 397.067 416.922 383.2C416.922 368.933 412.055 356.8 402.322 346.8C392.589 336.667 380.789 331.6 366.922 331.6C353.055 331.6 341.255 336.667 331.522 346.8C321.789 356.8 316.922 368.933 316.922 383.2ZM413.691 407.2V381.6H510.291V384.8C510.291 405.6 502.491 423.333 486.891 438C471.291 452.667 452.957 460 431.891 460C410.291 460 391.757 452.733 376.291 438.2C360.291 423.267 352.291 404.867 352.291 383C352.291 361.533 360.224 343.267 376.091 328.2C391.557 313.4 409.891 306 431.091 306C448.424 306 464.091 311.067 478.091 321.2C490.357 330.133 498.624 340.533 502.891 352.4H470.091C466.357 346.667 461.424 342 455.291 338.4C447.691 333.867 439.424 331.6 430.491 331.6C414.891 331.6 402.224 337.267 392.491 348.6C383.957 358.733 379.691 370.267 379.691 383.2C379.691 396 384.024 407.333 392.691 417.2C402.557 428.667 415.624 434.4 431.891 434.4C441.091 434.4 449.624 432 457.491 427.2C465.357 422.4 471.424 415.733 475.691 407.2H413.691ZM515.659 457V309H561.059C576.793 309 588.793 312.333 597.059 319C608.659 328.333 614.459 340.267 614.459 354.8C614.459 369.333 609.726 381.133 600.259 390.2C594.526 395.8 586.326 399.867 575.659 402.4L615.859 457H582.659L543.459 400.4H543.059V457H515.659ZM543.059 334.6V379.8H560.659C570.659 379.8 577.859 377 582.259 371.4C585.459 367.4 587.059 362.6 587.059 357C587.059 351.533 585.326 346.8 581.859 342.8C577.193 337.333 570.126 334.6 560.659 334.6H543.059ZM608.275 457L669.875 309H691.275L753.275 457H723.075L707.275 418.8H654.275L638.475 457H608.275ZM680.275 347.6L663.475 393H697.475L680.675 347.6H680.275ZM727.322 457V309H764.522C774.922 309 782.389 309.467 786.922 310.4C794.789 312 801.789 315.467 807.922 320.8C817.255 328.933 821.922 340.267 821.922 354.8C821.922 369.333 817.255 380.667 807.922 388.8C801.789 394.133 794.789 397.6 786.922 399.2C782.389 400.133 774.922 400.6 764.522 400.6H754.722V457H727.322ZM754.722 334.6V375H763.522C772.322 375 778.989 374.067 783.522 372.2C790.855 369.133 794.522 363.333 794.522 354.8C794.522 341.333 784.522 334.6 764.522 334.6H754.722ZM827.036 457V309H854.436V369.2H907.436V309H934.836V457H907.436V394.8H854.436V457H827.036ZM984.973 457V402.4L936.373 309H966.373L998.573 377L1030.97 309H1061.17L1012.37 402.4V457H984.973Z" fill="white"/>
</svg>
