<svg width="743" height="200" viewBox="0 0 743 200" fill="none" xmlns="http://www.w3.org/2000/svg">
<rect x="-381" y="126" width="1124" height="37" fill="#CB0809"/>
<path d="M84.6 177L41.4 29H69.4L95 132.4H95.4L120.8 29H140.8L165.6 132.4H166L191.8 29H219.8L176.8 177H155L131 79.2H130.6L106.2 177H84.6ZM212.678 103.4C212.678 81.6667 220.278 63.3333 235.478 48.4C250.678 33.4667 268.878 26 290.078 26C311.278 26 329.478 33.4667 344.678 48.4C359.878 63.3333 367.478 81.6667 367.478 103.4C367.478 124.6 359.878 142.667 344.678 157.6C329.611 172.533 311.411 180 290.078 180C268.745 180 250.478 172.533 235.278 157.6C220.211 142.667 212.678 124.6 212.678 103.4ZM240.078 103.2C240.078 117.067 244.878 129.067 254.478 139.2C264.211 149.333 276.078 154.4 290.078 154.4C304.078 154.4 315.878 149.333 325.478 139.2C335.211 129.067 340.078 117.067 340.078 103.2C340.078 88.9333 335.211 76.8 325.478 66.8C315.745 56.6667 303.945 51.6 290.078 51.6C276.211 51.6 264.411 56.6667 254.678 66.8C244.945 76.8 240.078 88.9333 240.078 103.2ZM358.847 177V29H404.247C419.98 29 431.98 32.3333 440.247 39C451.847 48.3333 457.647 60.2667 457.647 74.8C457.647 89.3333 452.914 101.133 443.447 110.2C437.714 115.8 429.514 119.867 418.847 122.4L459.047 177H425.847L386.647 120.4H386.247V177H358.847ZM386.247 54.6V99.8H403.847C413.847 99.8 421.047 97 425.447 91.4C428.647 87.4 430.247 82.6 430.247 77C430.247 71.5333 428.514 66.8 425.047 62.8C420.38 57.3333 413.314 54.6 403.847 54.6H386.247ZM465.863 177V29H493.263V93H493.663L539.863 29H572.063L516.263 101.8L572.063 177H539.863L493.663 112H493.263V177H465.863ZM560.486 134.6H589.286C589.953 141.4 592.353 146.533 596.486 150C599.953 152.933 604.086 154.4 608.886 154.4C614.486 154.4 619.286 152.667 623.286 149.2C627.286 145.733 629.286 141.267 629.286 135.8C629.286 129 626.886 123.8 622.086 120.2C619.419 118.2 612.419 115.067 601.086 110.8C590.686 106.8 583.419 103.067 579.286 99.6C570.353 92.1333 565.886 81.6667 565.886 68.2C565.886 56.3333 570.019 46.3333 578.286 38.2C586.553 30.0667 596.886 26 609.286 26C619.553 26 628.819 29.2667 637.086 35.8C647.086 43.6667 652.419 54.4667 653.086 68.2H625.086C624.019 57.1333 618.486 51.6 608.486 51.6C604.086 51.6 600.419 53 597.486 55.8C594.686 58.6 593.286 62.2 593.286 66.6C593.286 72.3333 595.486 76.7333 599.886 79.8C602.686 81.6667 608.686 84.1333 617.886 87.2C643.753 95.7333 656.686 110.933 656.686 132.8C656.686 147.733 651.619 159.6 641.486 168.4C632.419 176.133 621.486 180 608.686 180C597.353 180 587.153 176.533 578.086 169.6C567.019 161.067 561.153 149.4 560.486 134.6Z" fill="white"/>
</svg>
